PathFileType	4	(x/y/z)	S01_P20_T24
DataRate	CameraRate	NumFrames	NumMarkers	Units	OrigDataRate	OrigDataStartFrame	OrigNumFrames
240	240	8	51	mm	240	51	400
Frame#	Time	Sternum			R.Acromium			L.Acromium			Top.Head			R.ASIS			L.ASIS			R.PSIS			L.PSIS			R.Great.Tro			L.Great.Tro			R.Iliac.Crest			L.Iliac.Crest			V.Sacral			R.Thigh.Upper.Post			R.Thigh.Lower.Ant			R.Thigh.Lower.Post			R.Thigh.Upper.Ant			R.Knee.Lat			R.Knee.Med			R.Shank.Upper.Post			R.Shank.Lower.Ant			R.Shank.Lower.Post			R.Shank.Upper.Ant			R.Ankle.Lat			R.Ankle.Med			R.Heel.Upper			R.Heel.Med			R.Heel.Lat			R.Toe.Lat			R.Toe.Med			R.Toe.Tip			L.Thigh.Upper.Post			L.Thigh.Lower.Ant			L.Thigh.Lower.Post			L.Thigh.Upper.Ant			L.Knee.Lat			L.Knee.Med			L.Shank.Upper.Post			L.Shank.Lower.Ant			L.Shank.Lower.Post			L.Shank.Upper.Ant			L.Ankle.Lat			L.Ankle.Med			L.Heel.Upper			L.Heel.Med			L.Heel.Lat			L.Toe.Lat			L.Toe.Med			L.Toe.Tip			Cervical.Spine			Back			
		X1	Y1	Z1	X2	Y2	Z2	X3	Y3	Z3	X4	Y4	Z4	X5	Y5	Z5	X6	Y6	Z6	X7	Y7	Z7	X8	Y8	Z8	X9	Y9	Z9	X10	Y10	Z10	X11	Y11	Z11	X12	Y12	Z12	X13	Y13	Z13	X14	Y14	Z14	X15	Y15	Z15	X16	Y16	Z16	X17	Y17	Z17	X18	Y18	Z18	X19	Y19	Z19	X20	Y20	Z20	X21	Y21	Z21	X22	Y22	Z22	X23	Y23	Z23	X24	Y24	Z24	X25	Y25	Z25	X26	Y26	Z26	X27	Y27	Z27	X28	Y28	Z28	X29	Y29	Z29	X30	Y30	Z30	X31	Y31	Z31	X32	Y32	Z32	X33	Y33	Z33	X34	Y34	Z34	X35	Y35	Z35	X36	Y36	Z36	X37	Y37	Z37	X38	Y38	Z38	X39	Y39	Z39	X40	Y40	Z40	X41	Y41	Z41	X42	Y42	Z42	X43	Y43	Z43	X44	Y44	Z44	X45	Y45	Z45	X46	Y46	Z46	X47	Y47	Z47	X48	Y48	Z48	X49	Y49	Z49	X50	Y50	Z50	X51	Y51	Z51	

51	0.20833	-1034.7	1280.4	269.28	-1155	1535.7	447.07	-1189.4	1544.5	116.13	-1136.1	1856.9	271.16	-1088.9	1024.4	433.42	-1079.9	1022.8	168.32	-1323.4	1069.6	333.42	-1326.7	1069.2	229.7	-1170.1	975.94	514.42	-1180.5	974.01	86.472	-1175.4	1127.1	494.66	-1186.9	1104.4	88.952	-1338.2	1033.4	280.02	-1124.8	673.91	518.7	-1038.6	615.48	519.83	-1102.5	587.29	509.51	-1058.2	704.28	525.59	-1079	529.66	513.73	-1040.8	520.82	369.33	-1223.4	462.39	507.28	-1240.1	358.77	471.41	-1276.7	419.18	489.8	-1189.9	406.63	494.73	-1425.2	293.08	436.59	-1360.6	267.22	351.03	-1475	322.27	360.3	-1480.5	290.9	330.43	-1505.8	303.52	390.68	-1428.2	147.68	489.62	-1367.5	114.08	379.22	NaN	NaN	NaN	-1167.7	685.12	112.64	-1072.2	627.64	112.15	-1143.8	598.54	131.96	-1111.5	717.41	90.896	-1081.2	522.31	125.71	-1054.9	530.93	263.64	-1146.6	391.89	106.2	-1095.9	295.47	132.43	-1155.3	313.71	109.45	-1085.3	371.61	123.42	-1205	106.86	146.11	-1176.9	116.79	243.4	-1275	73.824	192.01	-1265.2	49.208	225.23	-1267.3	48.203	162.97	-1058	39.568	124.84	-1031.1	46.577	247.07	-969.38	57.672	194.04	-1255	1595.3	287.28	-1342	1284	310.64
52	0.2125	-1029.5	1281.7	269.43	-1150.2	1537	446.72	-1183.9	1545.5	115.74	-1130.5	1857.9	270.35	-1083.8	1026	433.37	-1074.6	1023.7	168.32	-1318.3	1071	333.19	-1321.6	1070.5	229.47	-1164.9	977.64	514.47	-1175.6	974.81	86.473	-1170.5	1128.7	494.47	-1181.2	1105.6	88.888	-1333.1	1034.7	279.81	-1116.3	675.84	518.5	-1029.4	618.31	519.44	-1093	589.49	509.21	-1050	706.92	525.37	-1069.1	532.11	513.39	-1030.7	523.83	368.92	-1212.9	463.72	506.45	-1228.7	360	470.58	-1265.9	420.04	488.96	-1178.7	408.24	494.01	-1412.9	292.48	435.47	-1347.1	267.73	349.62	-1463.4	321.2	359.36	-1468.1	289.82	329.27	-1493.5	301.91	389.76	-1413.7	147.07	488.2	-1353.4	114.33	377.7	NaN	NaN	NaN	-1165.3	685.98	112.66	-1070.2	627.72	112.19	-1142.1	599.19	131.96	-1110.2	718.1	90.679	-1080.2	522.36	125.67	-1053.8	530.76	263.65	-1146.2	392.05	106.22	-1095.6	295.49	132.33	-1155.1	313.88	109.5	-1085	371.61	123.34	-1205	106.98	146.12	-1176.8	116.9	243.37	-1275	73.943	192.04	-1265.2	49.33	225.25	-1267.3	48.327	162.99	-1058	39.561	124.83	-1031.1	46.583	247.04	-969.38	57.664	194.03	-1249.8	1596.5	286.7	-1337	1285.2	310.04
53	0.21667	-1024.3	1282.9	269.59	-1145.4	1538.3	446.39	-1178.5	1546.6	115.37	-1124.9	1858.9	269.6	-1078.8	1027.6	433.3	-1069.3	1024.7	168.32	-1313.1	1072.3	333	-1316.4	1071.7	229.28	-1159.8	979.33	514.52	-1170.6	975.61	86.488	-1165.6	1130.4	494.23	-1175.4	1106.8	88.849	-1328	1036	279.65	-1107.7	677.78	518.31	-1020.3	621.15	518.99	-1083.6	591.69	508.91	-1041.8	709.56	525.11	-1059.1	534.55	513	-1020.7	526.85	368.47	-1202.4	464.88	505.65	-1217.3	361.06	469.73	-1255.1	420.68	488.14	-1167.6	409.74	493.29	-1400.5	291.57	434.39	-1333.8	267.88	348.3	-1451.6	319.79	358.5	-1455.6	288.42	328.17	-1481.2	299.92	388.92	-1399	146.15	486.74	-1339.1	114.32	376.12	-1310	80.976	448.98	-1163	686.84	112.71	-1068.3	627.81	112.24	-1140.4	599.86	131.97	-1109	718.8	90.452	-1079.2	522.43	125.64	-1052.6	530.6	263.66	-1145.8	392.21	106.24	-1095.5	295.54	132.24	-1154.9	314.05	109.55	-1084.6	371.61	123.26	-1204.9	107.11	146.13	-1176.7	117.02	243.34	-1274.9	74.067	192.07	-1265.2	49.458	225.27	-1267.2	48.455	163.02	-1058	39.554	124.81	-1031.1	46.589	247.01	-969.38	57.656	194.01	-1244.5	1597.6	286.14	-1331.8	1286.5	309.46
54	0.22083	-1019.2	1284.2	269.74	-1140.6	1539.5	446.06	-1173.1	1547.6	115.02	-1119.4	1859.9	268.89	-1073.7	1029.2	433.22	-1063.9	1025.6	168.31	-1307.9	1073.6	332.85	-1311.3	1073	229.13	-1154.6	981	514.57	-1165.6	976.4	86.515	-1160.6	1132.1	493.96	-1169.6	1108	88.835	-1322.9	1037.3	279.52	-1099.3	679.72	518.12	-1011.2	623.96	518.49	-1074.2	593.89	508.59	-1033.6	712.18	524.81	-1049.3	536.97	512.56	-1010.8	529.88	367.98	-1191.9	465.87	504.89	-1205.8	361.97	468.86	-1244.2	421.12	487.35	-1156.4	411.12	492.55	-1388	290.35	433.35	-1320.8	267.67	347.05	-1439.8	318.06	357.71	-1442.9	286.71	327.13	-1468.7	297.56	388.15	-1384	144.95	485.26	-1324.7	114.09	374.5	-1295.3	80.938	446.79	-1160.8	687.71	112.76	-1066.4	627.91	112.28	-1138.8	600.54	131.98	-1108	719.51	90.218	-1078.2	522.51	125.59	-1051.5	530.44	263.68	-1145.5	392.38	106.26	-1095.3	295.6	132.15	-1154.8	314.23	109.59	-1084.3	371.62	123.18	-1204.8	107.24	146.14	-1176.6	117.14	243.31	-1274.9	74.196	192.11	-1265.1	49.59	225.3	-1267.2	48.588	163.05	-1058	39.548	124.8	-1031.1	46.594	246.98	-969.38	57.648	193.99	-1239.2	1598.7	285.62	-1326.7	1287.8	308.9
55	0.225	-1014	1285.4	269.89	-1135.8	1540.8	445.75	-1167.6	1548.7	114.7	-1113.8	1860.8	268.24	-1068.7	1030.7	433.12	-1058.6	1026.6	168.3	-1302.8	1074.8	332.74	-1306.1	1074.2	229.03	-1149.3	982.65	514.63	-1160.7	977.18	86.555	-1155.6	1133.8	493.65	-1163.9	1109.2	88.841	-1317.8	1038.5	279.44	-1090.8	681.64	517.94	-1002.2	626.76	517.94	-1065	596.09	508.26	-1025.6	714.76	524.5	-1039.5	539.36	512.08	-1001	532.91	367.47	-1181.4	466.69	504.16	-1194.2	362.73	467.98	-1233.2	421.37	486.59	-1145.2	412.39	491.8	-1375.3	288.85	432.35	-1308.1	267.09	345.89	-1427.8	316.01	356.98	-1430.2	284.69	326.14	-1456.1	294.84	387.44	-1368.7	143.49	483.77	-1310.1	113.67	372.84	-1280	80.889	444.55	-1158.5	688.59	112.83	-1064.6	628.01	112.33	-1137.2	601.23	132	-1107	720.22	89.982	-1077.3	522.6	125.55	-1050.5	530.29	263.69	-1145.1	392.55	106.27	-1095.1	295.67	132.05	-1154.6	314.42	109.63	-1084.1	371.65	123.1	-1204.8	107.36	146.16	-1176.5	117.27	243.27	-1274.8	74.33	192.15	-1265.1	49.726	225.33	-1267.2	48.724	163.08	-1058	39.542	124.79	-1031.1	46.6	246.94	-969.38	57.64	193.98	-1234	1599.8	285.11	-1321.6	1289	308.35
56	0.22917	-1008.9	1286.7	270.02	-1131	1542	445.45	-1162.2	1549.7	114.39	-1108.3	1861.8	267.64	-1063.6	1032.3	433.01	-1053.4	1027.6	168.29	-1297.6	1076.1	332.67	-1300.9	1075.4	228.97	-1144	984.26	514.69	-1155.7	977.95	86.607	-1150.6	1135.5	493.32	-1158.2	1110.4	88.867	-1312.7	1039.8	279.39	-1082.5	683.54	517.76	-993.31	629.53	517.34	-1055.8	598.26	507.93	-1017.5	717.32	524.15	-1029.8	541.73	511.54	-991.35	535.92	366.92	-1170.9	467.35	503.46	-1182.5	363.33	467.08	-1222.3	421.41	485.85	-1133.9	413.53	491.05	-1362.6	287.06	431.37	-1295.6	266.15	344.82	-1415.8	313.64	356.31	-1417.4	282.35	325.22	-1443.4	291.79	386.78	-1353.3	141.79	482.26	-1295.3	113.08	371.16	-1264.1	80.829	442.27	-1156.3	689.47	112.9	-1062.8	628.11	112.37	-1135.6	601.92	132.03	-1106.1	720.9	89.752	-1076.4	522.71	125.49	-1049.5	530.13	263.7	-1144.8	392.72	106.28	-1095	295.74	131.95	-1154.5	314.61	109.66	-1083.8	371.68	123.02	-1204.7	107.49	146.18	-1176.4	117.4	243.23	-1274.8	74.468	192.19	-1265.1	49.866	225.36	-1267.2	48.863	163.12	-1058	39.535	124.78	-1031.1	46.607	246.91	-969.37	57.631	193.96	-1228.7	1600.8	284.64	-1316.4	1290.3	307.83
57	0.23333	-1003.8	1287.9	270.13	-1126.1	1543.2	445.16	-1156.8	1550.7	114.1	-1102.8	1862.7	267.1	-1058.5	1033.8	432.88	-1048.1	1028.5	168.27	-1292.4	1077.3	332.64	-1295.8	1076.5	228.95	-1138.6	985.84	514.76	-1150.8	978.7	86.671	-1145.5	1137.2	492.97	-1152.5	1111.5	88.91	-1307.5	1040.9	279.38	-1074.2	685.41	517.58	-984.48	632.26	516.7	-1046.6	600.42	507.58	-1009.6	719.83	523.78	-1020.2	544.05	510.97	-981.81	538.91	366.34	-1160.4	467.84	502.79	-1170.7	363.79	466.16	-1211.2	421.26	485.12	-1122.7	414.56	490.29	-1349.7	285.02	430.43	-1283.5	264.86	343.84	-1403.6	310.96	355.68	-1404.5	279.71	324.36	-1430.5	288.41	386.17	-1337.6	139.88	480.77	-1280.2	112.34	369.45	-1247.6	80.757	439.98	-1154.2	690.34	112.98	-1061.1	628.22	112.4	-1134.1	602.61	132.05	-1105.1	721.55	89.534	-1075.6	522.82	125.43	-1048.6	529.96	263.7	-1144.5	392.9	106.27	-1094.9	295.83	131.85	-1154.3	314.8	109.68	-1083.5	371.72	122.93	-1204.7	107.61	146.2	-1176.3	117.53	243.19	-1274.7	74.609	192.24	-1265.1	50.008	225.39	-1267.2	49.005	163.16	-1058	39.529	124.76	-1031.1	46.615	246.87	-969.37	57.623	193.94	-1223.5	1601.8	284.19	-1311.2	1291.5	307.33
58	0.2375	-998.67	1289.1	270.23	-1121.3	1544.3	444.88	-1151.3	1551.7	113.83	-1097.3	1863.6	266.6	-1053.5	1035.3	432.75	-1042.8	1029.5	168.24	-1287.2	1078.4	332.64	-1290.6	1077.6	228.96	-1133.2	987.37	514.83	-1145.9	979.43	86.748	-1140.3	1138.9	492.61	-1146.9	1112.6	88.968	-1302.3	1042.1	279.42	-1065.9	687.25	517.41	-975.73	634.96	516.02	-1037.6	602.55	507.22	-1001.7	722.3	523.38	-1010.7	546.33	510.35	-972.4	541.86	365.72	-1149.9	468.17	502.14	-1158.8	364.11	465.22	-1200.2	420.92	484.41	-1111.4	415.48	489.53	-1336.6	282.72	429.51	-1271.5	263.25	342.93	-1391.3	307.99	355.08	-1391.6	276.77	323.55	-1417.5	284.72	385.59	-1321.6	137.78	479.28	-1264.9	111.48	367.74	-1230.7	80.674	437.7	-1152	691.21	113.06	-1059.3	628.32	112.43	-1132.5	603.3	132.07	-1104.1	722.15	89.336	-1074.8	522.93	125.35	-1047.7	529.78	263.7	-1144.2	393.08	106.25	-1094.8	295.92	131.75	-1154.2	314.99	109.69	-1083.3	371.76	122.84	-1204.6	107.72	146.22	-1176.2	117.66	243.14	-1274.7	74.754	192.28	-1265.1	50.153	225.41	-1267.2	49.148	163.2	-1058	39.522	124.75	-1031	46.624	246.83	-969.36	57.615	193.92	-1218.2	1602.8	283.76	-1306	1292.6	306.85
